PathFileType	4	(X/Y/Z)	C:\Users\Basilio\Documents\Thesis Gigler\squatting_fais\c3dfiles\077\SLS_front_pre2\markers_experimental.trc
DataRate	CameraRate	NumFrames	NumMarkers	Units	OrigDataRate	OrigDataStartFrame	OrigNumFrames
200.000000	200.000000	4	60	mm	200.000000	259	2075
Frame#	Time	FHD			LBHD			RBHD			C7			T10			CLAV			LSHO			LUUPA			LMUPA			LDUPA			LLEP			LMEP			LRAD			LUL			LRFIN			RSHO			RUPA1			RMUPA			RDUPA			RLEP			RMEP			RUL			RUFIN			LASI			RASI			USACR			LSACR			RSACR			LTHI1			LTHI2			LTHI3			LTHI4			LLFC			LMFC			LTIB1			LTIB2			LTIB3			LTIB4			LLMAL			LHEE			LMT1			LMT2			LMT5			RTHI			RTHI2			RTHI3			RTHI4			RLFC			RMFC			RTIB1			RTIB2			RTIB3			RTIB4			RLMAL			RMMAL			RHEE			RMT1			RMT2			RMT5			RRAD			
		X1	Y1	Z1	X2	Y2	Z2	X3	Y3	Z3	X4	Y4	Z4	X5	Y5	Z5	X6	Y6	Z6	X7	Y7	Z7	X8	Y8	Z8	X9	Y9	Z9	X10	Y10	Z10	X11	Y11	Z11	X12	Y12	Z12	X13	Y13	Z13	X14	Y14	Z14	X15	Y15	Z15	X16	Y16	Z16	X17	Y17	Z17	X18	Y18	Z18	X19	Y19	Z19	X20	Y20	Z20	X21	Y21	Z21	X22	Y22	Z22	X23	Y23	Z23	X24	Y24	Z24	X25	Y25	Z25	X26	Y26	Z26	X27	Y27	Z27	X28	Y28	Z28	X29	Y29	Z29	X30	Y30	Z30	X31	Y31	Z31	X32	Y32	Z32	X33	Y33	Z33	X34	Y34	Z34	X35	Y35	Z35	X36	Y36	Z36	X37	Y37	Z37	X38	Y38	Z38	X39	Y39	Z39	X40	Y40	Z40	X41	Y41	Z41	X42	Y42	Z42	X43	Y43	Z43	X44	Y44	Z44	X45	Y45	Z45	X46	Y46	Z46	X47	Y47	Z47	X48	Y48	Z48	X49	Y49	Z49	X50	Y50	Z50	X51	Y51	Z51	X52	Y52	Z52	X53	Y53	Z53	X54	Y54	Z54	X55	Y55	Z55	X56	Y56	Z56	X57	Y57	Z57	X58	Y58	Z58	X59	Y59	Z59	X60	Y60	Z60	

260	1.295	-325.8259582519532	1847.973876953125	-992.6217041015627	-466.348602294922	1743.267822265625	-1063.983764648438	-473.0107421875001	1737.173950195313	-917.5109863281252	-511.5009765625001	1588.855834960938	-1007.032104492188	-472.1709899902345	1248.603149414063	-997.1520996093752	-347.8809509277344	1553.025390625	-998.2979125976565	-358.4710693359376	1593.450927734375	-1170.665161132813	-175.2803344726563	1537.092651367188	-1255.361083984375	-148.3691711425782	1569.339233398438	-1228.247436523438	-106.6326217651367	1534.012573242188	-1254.526123046875	-42.55313110351563	1542.441284179688	-1244.82763671875	-41.14850616455079	1474.35400390625	-1214.436889648438	238.3115234375001	1570.129638671875	-1096.2060546875	249.4976043701172	1571.7158203125	-1175.875122070313	333.5737915039063	1597.956787109375	-1095.47900390625	-362.7389526367188	1580.697021484375	-833.9975585937502	-201.9890594482422	1541.38623046875	-732.0238037109376	-176.5706634521485	1568.616821289063	-765.4553222656251	-131.8171539306641	1542.811401367188	-733.3224487304689	-66.65613555908205	1549.956420898438	-743.7728271484376	-62.74954986572267	1475.799682617188	-771.414733886719	227.5858612060547	1585.530029296875	-781.6527099609377	308.7506408691407	1593.30322265625	-866.118347167969	-249.7615051269532	1063.862915039063	-1114.672119140625	-270.5245971679688	1103.479736328125	-828.3360595703127	-466.9104003906251	1148.991088867188	-991.6384887695315	-466.952117919922	1117.384399414063	-1019.478637695313	-474.6219787597657	1116.43359375	-964.1971435546877	-304.1896057128907	847.143493652344	-1160.7890625	-274.1062316894532	769.1782226562502	-1153.186401367188	-225.6255950927735	773.0556640625002	-1146.22314453125	-302.3879089355469	717.1932983398439	-1138.40625	-273.0271911621094	571.4562988281251	-1108.970336914063	-271.9850158691407	553.3060913085939	-976.5737915039065	-263.1402587890626	348.0216064453126	-1031.74462890625	-292.3718872070313	303.6777343750001	-1104.67529296875	-264.5433654785157	299.0296325683594	-1066.474487304688	-281.5656738281251	222.5065155029297	-1034.981079101563	-349.0602111816407	108.4139862060547	-1080.584106445313	-407.053680419922	78.43112945556642	-1027.605346679688	-197.7155914306641	56.25287246704103	-1010.701293945313	-192.8861083984376	59.76637268066408	-1052.898193359375	-323.4737243652344	122.0810241699219	-994.766784667969	-248.7821655273438	775.3732910156252	-746.8578491210939	-194.1267852783204	737.0642089843751	-741.6401367187501	-162.4743347167969	747.7135009765626	-745.0657958984376	-195.1462402343751	653.3984985351564	-749.0386962890626	-187.7049102783203	592.3071899414064	-746.7232055664064	-148.2345886230469	572.9166870117189	-869.225769042969	-171.0518188476563	449.1474609375001	-759.6376342773439	-255.8117828369141	390.5458984375001	-731.5114135742189	-214.8998260498047	374.5795288085938	-748.4053955078126	-221.5674743652344	331.7315063476563	-789.5740966796877	-341.3247070312501	181.1641540527344	-751.7234497070314	-304.0284423828126	176.5625762939453	-837.3821411132815	-404.8253173828126	166.156478881836	-817.2080688476565	-208.2597656250001	68.74522399902345	-778.1628417968752	-215.064926147461	71.85833740234376	-740.0632324218751	-247.0970001220704	62.74413299560548	-696.6770629882814	213.4944458007813	1567.089721679688	-857.965515136719	
261	1.3	-326.1048278808594	1847.771728515625	-993.7279052734377	-466.5909423828126	1743.579467773438	-1065.169555664063	-473.4239196777345	1736.770751953125	-918.491394042969	-511.8884887695314	1588.916137695313	-1008.366088867188	-472.5240478515626	1248.36376953125	-998.413269042969	-348.3753967285157	1552.825439453125	-999.4201660156252	-358.8493957519532	1593.16259765625	-1171.751953125	-175.2318725585938	1536.680786132813	-1256.2041015625	-148.6464538574219	1569.271118164063	-1229.316284179688	-106.5939407348633	1533.579467773438	-1255.439208984375	-42.76693344116212	1542.279907226563	-1245.608276367188	-41.33190536499024	1474.23193359375	-1215.419921875	237.5339813232422	1570.079223632813	-1097.265502929688	249.1640167236329	1571.533569335938	-1176.7294921875	333.5246582031251	1598.14697265625	-1096.693481445313	-363.5999145507813	1580.569946289063	-835.0299072265627	-202.5750885009766	1541.366455078125	-732.6068725585939	-177.277572631836	1568.31005859375	-766.2940063476564	-132.6389770507813	1542.46826171875	-733.9936523437501	-67.30808258056642	1549.76611328125	-744.3805541992189	-63.50292205810548	1475.44580078125	-772.1655273437502	226.9975128173829	1584.827514648438	-782.2490844726565	308.0145874023438	1592.712158203125	-866.7175903320315	-249.8669738769532	1063.840209960938	-1115.248291015625	-270.8322753906251	1103.71923828125	-829.2507934570315	-467.0629272460939	1148.800048828125	-992.4378051757815	-467.1035461425782	1117.019165039063	-1020.468200683594	-474.5463256835939	1116.426635742188	-965.099792480469	-303.9795227050782	847.0111083984377	-1161.313354492188	-273.8654479980469	768.9071044921877	-1153.572509765625	-225.4201202392579	772.9362792968752	-1146.859008789063	-302.2111816406251	717.1141357421876	-1138.885131835938	-272.7038574218751	571.2034301757814	-1109.30126953125	-271.0046386718751	553.5114746093751	-977.4920043945315	-263.0755310058594	347.9434509277344	-1031.904418945313	-292.1247863769532	303.5252075195313	-1104.727905273438	-264.4151306152344	299.1037292480469	-1066.45849609375	-281.6423950195313	222.0214843750001	-1035.109497070313	-348.9387207031251	108.3065872192383	-1080.540405273438	-407.1095275878907	78.45706939697267	-1027.579833984375	-197.4362487792969	56.32178115844728	-1010.552673339844	-192.9434509277344	59.74328231811525	-1052.875610351563	-323.4241333007813	122.1354064941407	-994.7299804687502	-246.3658905029297	776.1890258789065	-747.2850341796876	-191.2324371337891	738.5612792968751	-742.1536865234376	-159.9434967041016	749.4674072265626	-745.6428833007814	-191.4690093994141	654.9295654296876	-749.4668579101564	-183.3799743652344	594.0595092773439	-747.2266235351564	-143.3532104492188	574.7669677734376	-869.4607543945315	-167.110824584961	450.8505859375001	-760.0697021484376	-252.3764038085938	392.4610900878907	-731.5867919921876	-211.1423492431641	376.4734191894532	-748.9154663085939	-218.0317535400391	333.8081970214844	-790.1190185546877	-338.3372192382813	183.7270812988282	-752.3258666992189	-300.6591186523438	178.584213256836	-837.6845703125002	-401.850067138672	168.749267578125	-817.9738769531252	-205.7474060058594	70.35447692871095	-778.530944824219	-212.5676422119141	73.58081054687501	-740.3952636718751	-244.6785125732422	64.8452606201172	-697.0565795898439	212.8374481201172	1566.666259765625	-858.6363525390627	
262	1.305	-326.2964477539063	1847.534912109375	-994.7007446289065	-467.033660888672	1743.636352539063	-1066.4365234375	-473.967742919922	1735.830444335938	-919.692321777344	-512.2034912109376	1588.509765625	-1009.458435058594	-473.1742248535157	1248.040649414063	-999.5051879882815	-348.7136230468751	1552.854248046875	-1000.429992675781	-359.1173400878907	1593.005126953125	-1172.740844726563	-175.0915679931641	1536.264770507813	-1257.086181640625	-149.5007781982422	1569.278686523438	-1230.542602539063	-106.6168975830078	1533.209106445313	-1256.254638671875	-43.07533645629884	1542.098022460938	-1246.570922851563	-41.87981033325196	1473.880249023438	-1216.2900390625	237.4610900878907	1569.703369140625	-1097.97509765625	248.6959075927735	1571.232421875	-1177.359008789063	333.3152160644532	1597.8955078125	-1097.339233398438	-364.4054260253907	1580.377319335938	-836.2525634765627	-203.4222564697266	1541.096435546875	-733.6058349609376	-178.0763854980469	1567.921142578125	-767.1998291015626	-133.3158111572266	1542.279541015625	-734.7704467773439	-68.1016311645508	1549.405883789063	-745.1728515625001	-64.2749710083008	1474.941650390625	-772.8771972656252	226.1002502441407	1584.055908203125	-782.9822387695315	307.2455749511719	1592.2333984375	-867.1943969726565	-249.8127899169922	1063.763061523438	-1115.96337890625	-271.1662292480469	1103.659301757813	-829.988220214844	-467.3897399902345	1148.451904296875	-993.4507446289065	-467.431854248047	1117.145263671875	-1021.363708496094	-474.9606933593751	1116.16650390625	-966.0532836914065	-303.5857849121094	846.7525024414065	-1161.95263671875	-273.6675109863282	768.8855590820315	-1153.97314453125	-225.436752319336	772.9174804687502	-1147.493041992188	-301.9996337890626	717.0593261718751	-1139.439331054688	-272.5829162597657	571.1388549804689	-1109.657958984375	-271.7308044433594	553.4303588867189	-977.6080322265627	-262.9623718261719	347.9621887207032	-1032.006225585938	-291.6862792968751	303.0829772949219	-1104.857666015625	-264.2448425292969	298.9500427246094	-1066.503051757813	-281.5710449218751	221.9877014160157	-1034.998779296875	-348.8277282714844	108.2252502441407	-1080.489990234375	-407.0782470703126	78.3869094848633	-1027.56103515625	-197.5066833496094	55.9971389770508	-1010.377075195313	-192.744369506836	59.6904640197754	-1052.723266601563	-323.1944580078126	122.5698318481446	-994.671325683594	-244.2007293701172	777.107360839844	-748.0738525390626	-188.7483520507813	739.8463745117189	-742.9577026367189	-157.351303100586	751.3125610351564	-746.2549438476564	-187.9167938232422	656.6540527343751	-750.1182861328126	-179.3860778808594	595.5507812500001	-747.7543945312501	-139.2758941650391	576.8539428710939	-870.085632324219	-163.5223083496094	452.4291076660157	-760.7271118164064	-248.7545166015626	394.6797485351564	-732.3068847656251	-207.6801757812501	378.3491821289063	-749.6579589843751	-215.1043853759766	335.8518371582032	-791.0512695312502	-335.2778320312501	185.9556427001953	-752.9411621093751	-297.5143737792969	180.6900787353516	-838.3569946289065	-398.5087280273439	171.1611022949219	-818.7017822265627	-202.5257720947266	72.39066314697267	-778.555358886719	-209.6218261718751	75.50940704345705	-740.4889526367189	-241.7470245361329	66.91175842285158	-697.2590942382814	212.197006225586	1566.219360351563	-859.2851562500002	
263	1.31	-326.5089721679688	1847.435913085938	-995.809753417969	-467.3866577148439	1743.675903320313	-1067.4658203125	-474.4041137695314	1735.73974609375	-920.7368164062502	-512.7777099609376	1588.28466796875	-1010.766479492188	-473.0721435546876	1247.955444335938	-1000.525207519531	-349.0561828613282	1552.7802734375	-1001.480041503906	-359.2914123535157	1592.805053710938	-1173.879638671875	-175.5509796142578	1536.082763671875	-1257.95703125	-148.919189453125	1568.699829101563	-1231.154541015625	-107.1470184326172	1533.000610351563	-1257.175048828125	-43.16119003295899	1541.805786132813	-1247.420776367188	-42.31002426147462	1473.646484375	-1217.089721679688	237.0901031494141	1569.527709960938	-1098.689331054688	248.6377410888672	1570.8486328125	-1178.136352539063	332.8517761230469	1597.073974609375	-1098.23828125	-364.8731689453126	1580.217651367188	-837.0396118164065	-204.2296447753907	1540.708618164063	-734.5823364257814	-178.7515716552735	1567.749755859375	-767.9350585937501	-134.2842864990235	1541.697021484375	-735.7306518554689	-68.91143035888673	1548.953247070313	-745.8784790039064	-65.06519317626955	1474.552368164063	-773.5480957031252	225.5299682617188	1583.508056640625	-783.466003417969	306.5897521972657	1591.280517578125	-867.879821777344	-249.8424377441407	1063.843872070313	-1116.838256835938	-271.4282836914063	1103.85986328125	-830.8282470703127	-467.5432128906251	1148.58984375	-994.5003662109377	-467.6449584960939	1116.868408203125	-1022.1982421875	-475.388153076172	1115.977294921875	-966.9239501953127	-303.3768615722657	846.635925292969	-1162.763549804688	-273.3083801269532	768.5068359375002	-1154.551391601563	-225.1780090332032	772.7918701171877	-1147.8466796875	-301.6787414550782	716.9802246093751	-1140.01220703125	-272.0821838378907	571.0551147460939	-1110.017944335938	-272.1799926757813	552.9993896484376	-977.3375244140627	-262.8365173339844	347.9289245605469	-1032.006103515625	-291.4841613769532	302.8982238769532	-1104.927734375	-264.1311950683594	298.9764709472657	-1066.535522460938	-281.4432678222657	221.9958496093751	-1034.919921875	-348.8733825683594	108.2071838378907	-1080.3974609375	-407.1280822753907	78.52820587158205	-1027.465698242188	-197.5798339843751	55.98502349853517	-1010.304382324219	-192.8227539062501	59.75313186645509	-1052.6806640625	-323.7170410156251	122.7904129028321	-994.4871215820315	-242.1581573486329	777.9771118164065	-748.7639160156251	-186.0423126220703	741.7531127929689	-743.3382568359376	-155.0137634277344	753.2004394531251	-746.9076538085939	-184.4859161376953	658.0636596679689	-750.6774291992189	-175.6523895263672	597.3694458007814	-748.3678588867189	-134.8679656982422	578.6836547851564	-870.4178466796877	-159.5645294189453	454.3541870117189	-761.0387573242189	-245.1411437988282	396.4315185546876	-733.5729980468751	-204.1584472656251	379.9894714355469	-750.1803588867189	-210.8963012695313	337.4064636230469	-791.2050781250002	-331.7840881347657	188.0595855712891	-753.5218505859376	-293.7105712890626	182.2921905517578	-838.801696777344	-395.0915832519532	172.8097076416016	-819.6773681640627	-199.0704498291016	74.13524627685548	-778.6641235351565	-206.2498321533204	77.45827484130861	-740.7700805664064	-238.3663635253907	69.06263732910158	-697.3431396484376	211.3897857666016	1565.77294921875	-859.6604614257815	
